<mxfile host="app.diagrams.net" modified="2021-02-07T01:20:31.514Z" agent="5.0 (Windows NT 10.0; Win64; x64) AppleWebKit/537.36 (KHTML, like Gecko) Chrome/88.0.4324.104 Safari/537.36" etag="zYiClFj0OSQx3Gjy-V-n" version="14.2.9" type="github">
  <diagram id="7o489i0pje3uB_N5l4-V" name="Page-1">
    <mxGraphModel dx="1770" dy="1659" grid="1" gridSize="10" guides="1" tooltips="1" connect="1" arrows="1" fold="1" page="1" pageScale="1" pageWidth="850" pageHeight="1100" math="0" shadow="0">
      <root>
        <mxCell id="0" />
        <mxCell id="1" parent="0" />
        <mxCell id="V-ExJGWKOxF-PHGw7d-I-7" style="edgeStyle=orthogonalEdgeStyle;rounded=0;orthogonalLoop=1;jettySize=auto;html=1;entryX=0;entryY=0.5;entryDx=0;entryDy=0;" parent="1" source="V-ExJGWKOxF-PHGw7d-I-1" target="V-ExJGWKOxF-PHGw7d-I-6" edge="1">
          <mxGeometry relative="1" as="geometry" />
        </mxCell>
        <mxCell id="V-ExJGWKOxF-PHGw7d-I-1" value="" style="rounded=1;whiteSpace=wrap;html=1;" parent="1" vertex="1">
          <mxGeometry x="160" y="-310" width="120" height="60" as="geometry" />
        </mxCell>
        <mxCell id="V-ExJGWKOxF-PHGw7d-I-2" value="" style="rounded=1;whiteSpace=wrap;html=1;" parent="1" vertex="1">
          <mxGeometry x="415" y="-410" width="120" height="60" as="geometry" />
        </mxCell>
        <mxCell id="V-ExJGWKOxF-PHGw7d-I-4" value="" style="rounded=1;whiteSpace=wrap;html=1;" parent="1" vertex="1">
          <mxGeometry x="415" y="-330" width="120" height="60" as="geometry" />
        </mxCell>
        <mxCell id="V-ExJGWKOxF-PHGw7d-I-5" value="" style="rounded=1;whiteSpace=wrap;html=1;" parent="1" vertex="1">
          <mxGeometry x="415" y="-250" width="120" height="60" as="geometry" />
        </mxCell>
        <mxCell id="V-ExJGWKOxF-PHGw7d-I-6" value="AddonComponent" style="rounded=1;whiteSpace=wrap;html=1;" parent="1" vertex="1">
          <mxGeometry x="415" y="-170" width="120" height="60" as="geometry" />
        </mxCell>
        <mxCell id="V-ExJGWKOxF-PHGw7d-I-8" value="" style="shape=curlyBracket;whiteSpace=wrap;html=1;rounded=1;rotation=90;" parent="1" vertex="1">
          <mxGeometry x="460" y="-530" width="20" height="120" as="geometry" />
        </mxCell>
        <mxCell id="V-ExJGWKOxF-PHGw7d-I-9" value="/operator/pkg/name/name.go" style="text;html=1;strokeColor=none;fillColor=none;align=center;verticalAlign=middle;whiteSpace=wrap;rounded=0;" parent="1" vertex="1">
          <mxGeometry x="377.5" y="-510" width="195" height="20" as="geometry" />
        </mxCell>
        <mxCell id="V-ExJGWKOxF-PHGw7d-I-10" value="/operator/pkg/component/component.go" style="text;html=1;strokeColor=none;fillColor=none;align=center;verticalAlign=middle;whiteSpace=wrap;rounded=0;" parent="1" vertex="1">
          <mxGeometry x="730" y="-20" width="230" height="20" as="geometry" />
        </mxCell>
        <mxCell id="V-ExJGWKOxF-PHGw7d-I-11" value="" style="shape=curlyBracket;whiteSpace=wrap;html=1;rounded=1;rotation=90;" parent="1" vertex="1">
          <mxGeometry x="835" y="-50" width="20" height="120" as="geometry" />
        </mxCell>
        <mxCell id="V-ExJGWKOxF-PHGw7d-I-12" value="NewCoreComponent" style="rounded=1;whiteSpace=wrap;html=1;" parent="1" vertex="1">
          <mxGeometry x="790" y="70" width="120" height="60" as="geometry" />
        </mxCell>
        <mxCell id="V-ExJGWKOxF-PHGw7d-I-13" value="NewAddOnComponent" style="rounded=1;whiteSpace=wrap;html=1;" parent="1" vertex="1">
          <mxGeometry x="790" y="290" width="120" height="60" as="geometry" />
        </mxCell>
        <mxCell id="V-ExJGWKOxF-PHGw7d-I-14" value="" style="endArrow=none;dashed=1;html=1;dashPattern=1 3;strokeWidth=2;" parent="1" edge="1">
          <mxGeometry width="50" height="50" relative="1" as="geometry">
            <mxPoint x="849.5" y="270" as="sourcePoint" />
            <mxPoint x="849.5" y="160" as="targetPoint" />
            <Array as="points">
              <mxPoint x="849.5" y="230" />
            </Array>
          </mxGeometry>
        </mxCell>
        <mxCell id="V-ExJGWKOxF-PHGw7d-I-15" value="NewIstioControlPlane" style="rounded=1;whiteSpace=wrap;html=1;" parent="1" vertex="1">
          <mxGeometry x="565" y="100" width="120" height="60" as="geometry" />
        </mxCell>
        <mxCell id="V-ExJGWKOxF-PHGw7d-I-16" value="/operator/pkg/control_plane/control_plane.go" style="text;html=1;strokeColor=none;fillColor=none;align=center;verticalAlign=middle;whiteSpace=wrap;rounded=0;" parent="1" vertex="1">
          <mxGeometry x="510" y="30" width="230" height="20" as="geometry" />
        </mxCell>
        <mxCell id="V-ExJGWKOxF-PHGw7d-I-17" value="" style="shape=curlyBracket;whiteSpace=wrap;html=1;rounded=1;rotation=90;" parent="1" vertex="1">
          <mxGeometry x="615" width="20" height="120" as="geometry" />
        </mxCell>
        <mxCell id="V-ExJGWKOxF-PHGw7d-I-19" value="" style="edgeStyle=elbowEdgeStyle;elbow=horizontal;endArrow=classic;html=1;exitX=1;exitY=0.5;exitDx=0;exitDy=0;entryX=0;entryY=0.5;entryDx=0;entryDy=0;" parent="1" source="V-ExJGWKOxF-PHGw7d-I-15" target="V-ExJGWKOxF-PHGw7d-I-13" edge="1">
          <mxGeometry width="50" height="50" relative="1" as="geometry">
            <mxPoint x="610" y="170" as="sourcePoint" />
            <mxPoint x="660" y="120" as="targetPoint" />
            <Array as="points">
              <mxPoint x="698" y="240" />
            </Array>
          </mxGeometry>
        </mxCell>
        <mxCell id="V-ExJGWKOxF-PHGw7d-I-20" value="/operator/cmd/mesh/install.go" style="text;html=1;strokeColor=none;fillColor=none;align=center;verticalAlign=middle;whiteSpace=wrap;rounded=0;" parent="1" vertex="1">
          <mxGeometry x="-200" y="-70" width="230" height="20" as="geometry" />
        </mxCell>
        <mxCell id="V-ExJGWKOxF-PHGw7d-I-21" value="" style="shape=curlyBracket;whiteSpace=wrap;html=1;rounded=1;rotation=90;" parent="1" vertex="1">
          <mxGeometry x="-95" y="-180" width="20" height="300" as="geometry" />
        </mxCell>
        <mxCell id="V-ExJGWKOxF-PHGw7d-I-34" value="" style="edgeStyle=orthogonalEdgeStyle;rounded=0;orthogonalLoop=1;jettySize=auto;html=1;" parent="1" source="V-ExJGWKOxF-PHGw7d-I-22" target="V-ExJGWKOxF-PHGw7d-I-33" edge="1">
          <mxGeometry relative="1" as="geometry" />
        </mxCell>
        <mxCell id="V-ExJGWKOxF-PHGw7d-I-22" value="installManifests" style="rounded=1;whiteSpace=wrap;html=1;" parent="1" vertex="1">
          <mxGeometry x="-60" y="240" width="120" height="60" as="geometry" />
        </mxCell>
        <mxCell id="V-ExJGWKOxF-PHGw7d-I-28" value="" style="edgeStyle=orthogonalEdgeStyle;rounded=0;orthogonalLoop=1;jettySize=auto;html=1;" parent="1" source="V-ExJGWKOxF-PHGw7d-I-24" target="V-ExJGWKOxF-PHGw7d-I-22" edge="1">
          <mxGeometry relative="1" as="geometry">
            <Array as="points">
              <mxPoint x="-175" y="200" />
              <mxPoint y="200" />
            </Array>
          </mxGeometry>
        </mxCell>
        <mxCell id="KO8tKw-9YHDL1ZiFUtLR-4" value="Text" style="edgeLabel;html=1;align=center;verticalAlign=middle;resizable=0;points=[];" vertex="1" connectable="0" parent="V-ExJGWKOxF-PHGw7d-I-28">
          <mxGeometry x="0.1799" relative="1" as="geometry">
            <mxPoint as="offset" />
          </mxGeometry>
        </mxCell>
        <mxCell id="V-ExJGWKOxF-PHGw7d-I-30" style="edgeStyle=orthogonalEdgeStyle;rounded=0;orthogonalLoop=1;jettySize=auto;html=1;entryX=0.5;entryY=0;entryDx=0;entryDy=0;" parent="1" source="V-ExJGWKOxF-PHGw7d-I-24" target="V-ExJGWKOxF-PHGw7d-I-29" edge="1">
          <mxGeometry relative="1" as="geometry" />
        </mxCell>
        <mxCell id="V-ExJGWKOxF-PHGw7d-I-24" value="runApplyCmd" style="rounded=1;whiteSpace=wrap;html=1;" parent="1" vertex="1">
          <mxGeometry x="-235" y="120" width="120" height="60" as="geometry" />
        </mxCell>
        <mxCell id="V-ExJGWKOxF-PHGw7d-I-27" value="" style="edgeStyle=orthogonalEdgeStyle;rounded=0;orthogonalLoop=1;jettySize=auto;html=1;" parent="1" source="V-ExJGWKOxF-PHGw7d-I-25" target="V-ExJGWKOxF-PHGw7d-I-24" edge="1">
          <mxGeometry relative="1" as="geometry" />
        </mxCell>
        <mxCell id="V-ExJGWKOxF-PHGw7d-I-25" value="InstallCmd" style="rounded=1;whiteSpace=wrap;html=1;" parent="1" vertex="1">
          <mxGeometry x="-235" y="10" width="120" height="60" as="geometry" />
        </mxCell>
        <mxCell id="V-ExJGWKOxF-PHGw7d-I-32" value="" style="edgeStyle=orthogonalEdgeStyle;rounded=0;orthogonalLoop=1;jettySize=auto;html=1;" parent="1" source="V-ExJGWKOxF-PHGw7d-I-29" target="V-ExJGWKOxF-PHGw7d-I-31" edge="1">
          <mxGeometry relative="1" as="geometry" />
        </mxCell>
        <mxCell id="V-ExJGWKOxF-PHGw7d-I-29" value="getProfileAndEnabledComponents" style="rounded=1;whiteSpace=wrap;html=1;" parent="1" vertex="1">
          <mxGeometry x="-370" y="230" width="205" height="60" as="geometry" />
        </mxCell>
        <mxCell id="V-ExJGWKOxF-PHGw7d-I-31" value="corecomponenents" style="rounded=1;whiteSpace=wrap;html=1;" parent="1" vertex="1">
          <mxGeometry x="-370" y="330" width="205" height="60" as="geometry" />
        </mxCell>
        <mxCell id="V-ExJGWKOxF-PHGw7d-I-38" style="edgeStyle=orthogonalEdgeStyle;rounded=0;orthogonalLoop=1;jettySize=auto;html=1;entryX=0;entryY=0.5;entryDx=0;entryDy=0;" parent="1" source="V-ExJGWKOxF-PHGw7d-I-33" target="V-ExJGWKOxF-PHGw7d-I-37" edge="1">
          <mxGeometry relative="1" as="geometry" />
        </mxCell>
        <mxCell id="V-ExJGWKOxF-PHGw7d-I-33" value="mainifest.GenerateConfig" style="whiteSpace=wrap;html=1;rounded=1;" parent="1" vertex="1">
          <mxGeometry x="-60" y="340" width="120" height="60" as="geometry" />
        </mxCell>
        <mxCell id="V-ExJGWKOxF-PHGw7d-I-35" value="/operator/pkg/manifest/shared.go" style="text;html=1;strokeColor=none;fillColor=none;align=center;verticalAlign=middle;whiteSpace=wrap;rounded=0;" parent="1" vertex="1">
          <mxGeometry x="160" y="-70" width="230" height="20" as="geometry" />
        </mxCell>
        <mxCell id="V-ExJGWKOxF-PHGw7d-I-36" value="" style="shape=curlyBracket;whiteSpace=wrap;html=1;rounded=1;rotation=90;" parent="1" vertex="1">
          <mxGeometry x="265" y="-90" width="20" height="120" as="geometry" />
        </mxCell>
        <mxCell id="V-ExJGWKOxF-PHGw7d-I-37" value="GenerateConfig" style="rounded=1;whiteSpace=wrap;html=1;" parent="1" vertex="1">
          <mxGeometry x="215" y="10" width="120" height="60" as="geometry" />
        </mxCell>
      </root>
    </mxGraphModel>
  </diagram>
</mxfile>
